<?xml version="1.0" standalone="no"?><!DOCTYPE svg PUBLIC "-//W3C//DTD SVG 1.1//EN" "http://www.w3.org/Graphics/SVG/1.1/DTD/svg11.dtd"><svg t="1623577184539" class="icon" viewBox="0 0 1025 1024" version="1.1" xmlns="http://www.w3.org/2000/svg" p-id="10573" xmlns:xlink="http://www.w3.org/1999/xlink" width="128.125" height="128"><defs><style type="text/css"></style></defs><path d="M166.079115 867.866022v-511.914681h85.319113v511.914681zM376.476049 867.866022v-511.914681h85.319113v511.914681zM586.872983 868.036661v-511.914681h85.319113v511.914681zM797.440555 867.866022v-511.914681h85.319113v511.914681z" fill="#C5CDFF" p-id="10574"></path><path d="M52.604694 921.446426h921.446425a51.191468 51.191468 0 0 1 51.191469 51.191468v51.191468h-1023.829362v-51.191468a51.191468 51.191468 0 0 1 51.191468-51.191468z" fill="#6B77E8" p-id="10575"></path><path d="M97.823824 307.148809h853.191135v34.127645a34.127645 34.127645 0 0 1-34.127646 34.127645h-784.935844a34.127645 34.127645 0 0 1-34.127645-34.127645v-34.127645zM131.951469 854.214964h784.935844a34.127645 34.127645 0 0 1 34.127646 34.127646v34.127645h-853.191135v-34.127645a34.127645 34.127645 0 0 1 34.127645-34.127646z" fill="#979FEF" p-id="10576"></path><path d="M49.021291 307.148809h925.200467A48.631895 48.631895 0 0 0 1023.877482 265.001166a47.266789 47.266789 0 0 0-31.056158-49.826362L530.903644 4.265956a45.389768 45.389768 0 0 0-38.222963 0L27.520875 216.881186a47.608065 47.608065 0 0 0-20.988502 67.231462A48.290618 48.290618 0 0 0 49.021291 307.148809z" fill="#6B77E8" p-id="10577"></path><path d="MNaN NaNmNaN NaNlNaN NaNqNaN NaN NaN NaNlNaN NaNqNaN NaN NaN NaNlNaN NaNqNaN NaN NaN NaNlNaN NaNqNaN NaN NaN NaNZ" fill="#C5CDFF" p-id="10578"></path><path d="M434.226069 126.80533m22.166556-12.797867l0 0q22.166556-12.797867 34.964422 9.368689l42.659557 73.888519q12.797867 22.166556-9.368689 34.964423l0 0q-22.166556 12.797867-34.964423-9.368689l-42.659556-73.888519q-12.797867-22.166556 9.368689-34.964423Z" fill="#C5CDFF" p-id="10579"></path><path d="M974.051119 921.446426h-22.865522v-33.103816a34.127645 34.127645 0 0 0-34.127645-34.127646h-34.127646V375.404099h34.127646a34.127645 34.127645 0 0 0 34.127645-34.127645v-34.127645h23.206799a48.631895 48.631895 0 0 0 49.485086-42.147643 47.266789 47.266789 0 0 0-31.056158-49.826362L531.074282 4.095317A48.973171 48.973171 0 0 0 512.815992 0v375.404099h74.227629v478.810865h-74.227629V1023.829362h511.914681v-51.191468a51.191468 51.191468 0 0 0-50.679554-51.191468z m-176.439926-67.231462H672.362734V375.404099h125.248459z" opacity=".4" p-id="10580"></path></svg>