<?xml version="1.0" standalone="no"?><!DOCTYPE svg PUBLIC "-//W3C//DTD SVG 1.1//EN" "http://www.w3.org/Graphics/SVG/1.1/DTD/svg11.dtd"><svg t="1649050257541" class="icon" viewBox="0 0 1024 1024" version="1.1" xmlns="http://www.w3.org/2000/svg" p-id="11880" width="16" height="16" xmlns:xlink="http://www.w3.org/1999/xlink"><defs><style type="text/css">@font-face { font-family: feedback-iconfont; src: url("//at.alicdn.com/t/font_1031158_u69w8yhxdu.woff2?t=1630033759944") format("woff2"), url("//at.alicdn.com/t/font_1031158_u69w8yhxdu.woff?t=1630033759944") format("woff"), url("//at.alicdn.com/t/font_1031158_u69w8yhxdu.ttf?t=1630033759944") format("truetype"); }
</style></defs><path d="M705 407.2s-26-37.5-35.4-48.4c-9.9-11.5-13-37.5-16.1-43.7-3.1-6.2-16.1-40.6-16.1-40.6l4.7-19.3s-4.7-20.8-11.5-19.3c-6.2 1.6-22.9 1.6-22.9 1.6l-30.7-1.6-37-8.3-20.8 14.6-20.8-13-27.6-8.3-3.6-22.4s-17.7-6.2-29.1-6.2c-11.5 0-48.4 4.7-48.4 4.7l-26 11.5s-17.7-1.6-24.5 4.7c-6.2 6.2-22.9 27.6-22.9 27.6s-8.3 20.8-16.1 24.5c-8.3 3.1-32.3 37.5-32.3 37.5s0 45.3-3.1 55.2 6.2 46.8 6.2 46.8l29.1 35.4s17.7 27.6 24.5 27.6c6.2 0 9.9-3.1 22.9-3.1 13 0 27.6-1.6 27.6-1.6s16.1-11.5 22.9-13c6.2-1.6 22.9-1.6 22.9 4.7s17.7 13 17.7 13l19.3 27.6s9.9 19.3 9.9 27.6 11.5 35.4 9.9 42.2c-1.6 6.2 14.6 61.4 6.2 66.6-8.3 4.7-3.1 17.7-1.6 29.1 1.6 11.5 13 26 13 35.4 0 9.4 9.9 46.8 9.9 46.8s9.9 9.9 6.2 17.7c-3.1 8.3 19.3 46.8 19.3 46.8l17.7 22.9s-4.7 4.7 9.9-3.1c14.6-8.3 29.1-27.6 29.1-27.6l22.9-19.3s9.9-17.7 11.5-26c1.6-8.3 9.9-24.5 9.9-24.5s14.6-6.2 14.6-13c0-6.2-3.1-42.2 6.2-46.8 9.9-4.7 13-8.3 17.7-22.9s9.9-35.4 9.9-45.3-6.2-46.8 0-56.7c6.2-9.9 29.1-42.2 40.6-50.5s27.6-26 32.3-40.6c4.7-14.6 9.9-48.4 9.9-48.4s-26 1.6-32.3 6.2c-7.4 5-25.6-4.8-25.6-4.8z m8.4 247.7s3.1 17.7 3.1 26-11.5 20.9-11.5 20.9 6.2 26 13 32.3c0 0 22.9-24.5 24.5-30.7 1.6-6.2 0-24.5 6.2-30.7 6.2-6.2 6.2-52.1 6.2-52.1l-24.5 16.1-17 18.2z" fill="#1296db" p-id="11881"></path></svg>