<?xml version="1.0" standalone="no"?><!DOCTYPE svg PUBLIC "-//W3C//DTD SVG 1.1//EN" "http://www.w3.org/Graphics/SVG/1.1/DTD/svg11.dtd"><svg t="1649050220441" class="icon" viewBox="0 0 1024 1024" version="1.1" xmlns="http://www.w3.org/2000/svg" p-id="10783" width="16" height="16" xmlns:xlink="http://www.w3.org/1999/xlink"><defs><style type="text/css">@font-face { font-family: feedback-iconfont; src: url("//at.alicdn.com/t/font_1031158_u69w8yhxdu.woff2?t=1630033759944") format("woff2"), url("//at.alicdn.com/t/font_1031158_u69w8yhxdu.woff?t=1630033759944") format("woff"), url("//at.alicdn.com/t/font_1031158_u69w8yhxdu.ttf?t=1630033759944") format("truetype"); }
</style></defs><path d="M571.4 715.3c2.8-8.4 12.7-23.4 12.7-23.4l-11.3-23.4-15 15-17.8 9.8 14.1 23.4c-0.9 0 14.5 7.1 17.3-1.4z m-41.7 7.1L510.5 699l-19.2-23.4h-9.8s16.4 27.7 20.6 34.7c4.2 7 19.2 26.3 19.2 26.3s17.8 8.4 27.7 9.8c9.8 1.4 15 1.4 15 1.4l23.4 4.2-29.1-14.1-28.6-15.5z m62.4-4.3l1.4-15-12.7 16.4 11.3-1.4zM330.4 301.3c17.8-2.8 37.5-15 37.5-15l-33.3 1.4s-26.3 5.6-31.9 12.7c-5.6 7-8.4 15-8.4 15l15 2.8c0.5-0.5 2.8-14.1 21.1-16.9z m347.5 409.8c-8.4-7-24.9 1.4-24.9 1.4l-9.8-11.3-5.6 16.4 20.6 11.3 11.3 15 16.4 8.4 5.6-8.4 14.1 14.1 4.2-15-14.1-16.4s-9.4-8.5-17.8-15.5z m132.2-385h-32.8l-33.3-7-34.7-9.8-7-11.3-27.7-2.8h-15l7 17.8-33.3 2.8s-8.4-14.1-15-14.1c-7 0-33.3 1.4-33.3 1.4s-17.8-4.2-23.4-9.8-36.1-9.8-36.1-9.8l-24.9-14.1-30.5-1.4-7 4.2 29.1 15s-16.4 8.4-23.4 8.4-24.9 2.8-24.9 2.8l-29.1 9.8-33.3 2.8-20.6 9.8-26.3 9.8-31.9-4.2-27.7 1.4-23.4 5.6-25.3-7.5h-0.5c52.6 106.7 511.2 72 584.3 0.2z m-610 44.6l-4.2 22 24.9 22 17.8 26.3-2.8 17.8 12.7 17.8s-15 4.2-23.4 1.4c-8.4-2.8-27.7 4.2-27.7 4.2l-5.6 26.3 24.9-1.4 7 17.8 19.2 44.1s26.3 55.3 23.4 66.6c0 0 30.5-11.3 40.3-22 9.8-11.3 17.8-29.1 17.8-29.1l-11.3-16.4-26.3-9.8-26.3-22-17.8-15 8.4-12.7s9.8-9.8 15-4.2c5.6 5.6 2.8 15 11.3 20.6s16.4 23.4 24.9 26.3c8.4 2.8 22 15 34.7 15s24.9 2.8 30.5 8.4 17.8 14.1 16.4 20.6c-1.4 7 5.6 36.1 15 45.5 9.8 9.8 23.4 26.3 23.4 26.3s-4.2-14.1-7-22c-2.8-8.4 0-20.6 5.6-26.3 5.6-5.6 15-14.1 19.2-22 4.2-8.4 23.4-14.1 29.1-4.2 5.6 9.8 16.4 22 16.4 22l5.6 20.6 5.6 27.7 17.8 26.3-2.8-17.8s-19.2-30.5-8.4-40.3c11.3-9.8 26.3-5.6 26.3-5.6v15l-5.6 15 17.8-20.6-5.6-22-8.4-16.4 12.7-2.8-5.6-9.8s22 7 29.1 1.4c5.2-4.2 15-14.1 20.2-19.2l3.3 15 5.6-15-5.6-2.3 0.5-0.5 7-20.6-7-29.1V502l-7-17.8s12.7-5.6 17.8 1.4c5.6 7 12.7 31.9 12.7 31.9l19.2-15-7-16.4s8.4-8.4 15-12.7c7-4.2 27.7-26.3 27.7-26.3l11.3-2.8 9.8-20.6s-7-15-14.1-16.4c-7-1.4-15-12.7-15-12.7s26.3-9.8 33.3-12.7 31.9 0 31.9 0l24.9-8.4-4.2 16.4-2.8 34.7 15-14.1 14.1-19.2 14.1-12.7 43.1-8.4 4.7-6.6c-4.7-24.4-23-38.9-23-38.9-16.9 11.7-554.7 50.2-582.9 1.4-0.4 0-16.8 14.6-26.6 44.6zM585 603.3l5.6 23.4 9.8 15 5.6 22s5.6 0 5.6-11.3-15-33.3-15-33.3L585 603.3z m58.2-80.7c14.1-5.6 29.1-14.1 29.1-14.1s4.2-16.4 7-23.4 11.3-11.3 11.3-11.3v-16.4s-8.4-1.4-14.1 7c-5.6 8.4-14.1 26.3-14.1 26.3s-11.3 9.8-16.4 12.7c-5.6 2.8-20.6 22-20.6 22l8.4 11.3c-0.5 0-4.2-8.5 9.4-14.1z m66.6 207.7l22 1.4-12.7-12.7-9.3 11.3z" fill="#1296db" p-id="10784"></path></svg>