<?xml version="1.0" standalone="no"?><!DOCTYPE svg PUBLIC "-//W3C//DTD SVG 1.1//EN" "http://www.w3.org/Graphics/SVG/1.1/DTD/svg11.dtd"><svg t="1649050022480" class="icon" viewBox="0 0 1117 1024" version="1.1" xmlns="http://www.w3.org/2000/svg" p-id="9629" width="17.453125" height="16" xmlns:xlink="http://www.w3.org/1999/xlink"><defs><style type="text/css">@font-face { font-family: feedback-iconfont; src: url("//at.alicdn.com/t/font_1031158_u69w8yhxdu.woff2?t=1630033759944") format("woff2"), url("//at.alicdn.com/t/font_1031158_u69w8yhxdu.woff?t=1630033759944") format("woff"), url("//at.alicdn.com/t/font_1031158_u69w8yhxdu.ttf?t=1630033759944") format("truetype"); }
</style></defs><path d="M379.100042 894.049442l27.321067-6.888765v-38.630679l-20.4793-2.234924-6.841767 47.754368zM88.619971 529.006919c4.420849-13.497539 9.121688-65.719754 0-72.607519-9.122688-6.889765-11.310613-18.199378-40.865603-11.310613-29.55599 6.887765-38.63168 27.321066-38.63168 40.865603C9.122688 499.450929 0 545.06337 0 545.06337s16.011453 13.497539 38.63168 4.37585c22.666225-9.07669 45.286452-6.609774 49.988291-20.433301z m22.619227 13.823527l24.901149 15.731463-20.4793 29.555989s40.912602-6.888765 52.222215-9.122688c11.310613-2.233924 54.41014-9.122688 65.952746-11.309613 11.356612-2.234924 4.421849-29.55599 2.234923-47.522376-2.234924-18.198378-29.55599-43.098527-56.877056-70.420593-27.321066-27.321066-27.321066-43.052528-27.321066-43.052529l13.544537-20.4793-45.288452-20.386303-31.741915 47.474378c-2.233924 15.825459 33.976839 77.077366 40.865603 90.853894 6.887765 13.544537-18.012384 38.63168-18.012384 38.63168z m583.428058 462.506192l18.199378 6.888764 24.853151-13.497538-40.864603-6.934763-2.187926 13.497538z m56.551068-991.803101a42.866535 42.866535 0 0 0-9.122689 1.209959c-15.964454 4.468847-65.952746 15.779461-79.497282 20.4793-13.497539 4.37585-63.48583 13.498539-63.48583 13.498539s-49.988291 18.244376-59.11098 22.666225c-9.07569 4.421849-13.497539 40.865603-13.497539 40.865603s-22.666225 13.497539-38.631679 24.854151c-16.057451 11.309613-36.489753 52.176217-36.489753 52.176216s-31.742915 22.666225-45.287452 24.854151c-13.497539 2.233924-40.865603 31.742915-40.865603 31.742915s-22.619227 15.778461-43.052529 24.901149c-20.4793 9.07569-9.122688 61.251906 0 65.719753 9.122688 4.421849 2.186925 22.620227 18.198378 38.63168 16.011453 15.731462 52.175217-20.433302 52.175217-20.433302 6.935763-11.309613 40.865603-2.233924 47.754368 13.498539 6.934763 15.824459 9.122688 47.567374 9.122688 47.567374l-11.309614 31.742915s9.121688 4.421849 24.854151 2.187926c16.010453-2.187925 61.297905-20.433302 72.607518-24.855151 11.310613-4.420849 24.85515-61.297905 36.444754-65.719754 11.309613-4.421849 20.432302-29.508991 9.122689-47.474377-11.357612-18.245376-20.4793-52.222215-20.4793-52.222215s31.788913-33.976839 36.443754-47.475377c4.467847-13.543537 77.309358-43.098527 90.852895-54.456139 13.498539-11.309613 27.322066 22.667225 22.620226 33.976839-4.420849 11.357612-52.128218 47.521376-63.48583 65.767752-11.309613 18.197378 18.199378 65.718754 45.288452 54.362142 27.320066-11.309613 97.741659-11.309613 106.817349-18.15138 9.122688-6.935763 43.099527-33.977839 47.754368-45.33445 4.467847-11.309613-2.187925-43.098527-11.309613-47.474378-9.123688-4.467847-11.310613-72.608518-11.310614-86.199054 0-13.497539-82.243189-100.906551-82.243189-100.906551-45.148457-18.059383-42.075562-18.059383 9.122689 0z m363.553573 876.049057c-2.186925-18.199378-22.619227-49.942293-24.85415-59.063981-2.187925-9.122688-49.941293 2.233924-65.952746 4.420849-16.011453 2.234924-65.952746-9.122688-65.952746-9.122688s-43.099527-27.321066-54.456138-24.854151c-11.309613 2.233924-36.397756 38.63168-54.363142 47.521376-18.199378 9.122688-47.754368 9.122688-47.754368 9.122688h-18.199378c-11.355612 0-16.009453-13.544537-16.009453-13.544537l29.508992-11.309613-13.499539-20.4793s6.889765-38.63168 6.889765-49.942293 18.198378-36.163764 29.508991-54.409141c11.356612-18.199378 36.443754-18.199378 49.988291-18.199377 13.496539 0 16.009453 33.977839 16.009453 33.977838l22.621227 22.619227s31.742915-9.07569 40.865603-18.197378c9.122688-9.122688-13.497539-27.322066-13.497538-27.322066s31.695917-11.309613 43.052528-15.778461c11.309613-4.420849 49.942293-27.321066 49.942293-36.163764 0-8.843698-2.187925-47.475377-11.310613-52.176216-9.122688-4.421849-40.865603-11.356612-59.11098-22.666226-18.15138-11.310613-27.274068-2.187925-40.818605-15.732462-13.544537-13.544537-16.011453-31.788913-27.321066-29.55499-11.309613 2.233924-27.321066-40.865603-27.321066-40.865603s-18.245376-40.865603-27.322066-56.598065c-9.122688-15.777461-36.443754-24.85415-52.175217-40.864604-16.011453-15.779461-4.467847-36.211762-11.356612-49.988291-6.888765-13.497539-83.919132 2.233924-83.919131 2.233923s16.011453 29.508991 13.498538 43.053529c-2.187925 13.543537-38.63168 0-38.631679 0l-15.964455 38.63068-20.4793 52.222215s-38.63168-11.309613-65.952745-13.543537c-27.321066-2.234924-40.865603 22.666225-54.363142 31.742915-13.544537 9.122688-31.788913-13.498539-43.099527-16.011453a5599.692604 5599.692604 0 0 0-49.988292-9.07569s-4.421849-38.63168-2.187925-47.475377c2.187925-9.169687 4.421849-24.901149-4.421849-29.601988-9.122688-4.420849-29.55499 18.245376-38.630679 29.555989-9.122688 11.309613 13.497539 38.63068 13.497538 38.63068l4.421849 15.779461s-20.433302 22.619227-33.977838 27.321066c-13.497539 4.420849-49.941293 38.63068-49.941294 38.630679l-38.631679 22.667226-43.098527 33.976838-49.988291 24.854151-52.129219 11.309613 38.63068 24.855151s20.433302 31.742915 24.85515 47.475377c4.420849 16.057451-2.234924 40.911602-2.234923 40.911602s-40.864603 18.199378-54.40914 20.432301c-13.497539 2.187925-74.796443 2.187925-74.796444 2.187925s-25.133141 45.798435-25.133141 63.997813c0 18.245376 4.421849 86.199054 6.887765 95.275744 2.234924 9.122688 49.988291 36.210762 63.532828 40.865603 13.497539 4.420849 52.128218-2.187925 63.48583-6.889765 11.309613-4.420849 47.754368-31.741915 56.877056-45.286452 9.121688-13.544537 6.887765-56.598065 6.887765-56.598065s36.443754-24.900149 43.053528-38.63068c6.934763-13.590535 24.901149-54.456139 24.901149-54.456139l61.297905 15.778461s24.85415-13.544537 29.508991-24.85415c4.653841-11.357612 38.63168 13.497539 38.63168 13.497538s36.443754 47.521376 49.988291 54.456139c13.543537 6.841766 45.286452 38.63168 45.286452 38.631679l-13.497538 47.474378s-40.912602 0-43.099527 22.667225c-2.233924 22.666225 81.731206 2.233924 81.731206 2.233924l18.198378-54.456139 9.122689-38.63168s-38.63168-31.742915-54.456139-43.053528c-15.964454-11.309613-47.708369-43.098527-56.784059-59.10998-9.122688-15.732462 33.93084-22.620227 38.631679-11.309613 4.421849 11.355612 65.952746 67.952677 77.262359 70.419593 11.309613 2.234924 43.099527 74.842442 47.754368 83.919132 4.421849 9.122688 29.55499 59.11098 31.742915 70.420593 2.233924 11.309613 33.976839-4.421849 33.976839-4.421849l20.4793-43.098527s-13.590535-29.508991-18.245376-49.942293c-4.653841-20.4793 40.865603 2.187925 40.865603 2.187925s22.620227 15.777461 24.85515 29.55499c2.233924 13.497539 20.432302 74.842442 20.432302 74.842442l49.941293 18.199378 16.011453-20.433302 29.554989 29.55499s27.321066 4.421849 40.865604 0c13.497539-4.467847 0-20.4793 0-20.4793l31.742915 2.233924 31.742915-13.497539s47.754368-2.233924 61.297905-9.122688c13.591535-6.841766 81.777205-2.186925 81.777205-2.186925s0-43.053528-2.232924-61.297905z m-719.7074-97.369672l-13.497539 2.233924v31.742915h18.15138l-4.653841-33.976839z m202.093092-405.909126l-13.497538-6.888764 4.421849 29.508991 9.075689-22.620227z" p-id="9630" fill="#1296db"></path></svg>