<?xml version="1.0" standalone="no"?><!DOCTYPE svg PUBLIC "-//W3C//DTD SVG 1.1//EN" "http://www.w3.org/Graphics/SVG/1.1/DTD/svg11.dtd"><svg t="1649050406536" class="icon" viewBox="0 0 1024 1024" version="1.1" xmlns="http://www.w3.org/2000/svg" p-id="12865" width="16" height="16" xmlns:xlink="http://www.w3.org/1999/xlink"><defs><style type="text/css">@font-face { font-family: feedback-iconfont; src: url("//at.alicdn.com/t/font_1031158_u69w8yhxdu.woff2?t=1630033759944") format("woff2"), url("//at.alicdn.com/t/font_1031158_u69w8yhxdu.woff?t=1630033759944") format("woff"), url("//at.alicdn.com/t/font_1031158_u69w8yhxdu.ttf?t=1630033759944") format("truetype"); }
</style></defs><path d="M1020.74013 457.207105c-7.848427-7.848427-12.241839-12.241839-12.241839-30.583271s-30.540617-55.024295-30.540616-55.024295-34.934029 4.393413-34.93403-22.649535c0-27.085603-26.189858-48.882048-30.540616-36.682864-4.393413 12.241839-24.441024 24.441024-32.289451 4.350759-7.891081-20.047611-26.232513-30.540617-44.53129-32.289451-18.341432-1.70618-28.834437 10.493005-30.583271 30.540616-1.70618 20.090266 4.393413 50.673537 4.393413 50.673537l-16.635252 28.791783-6.099593 42.782456s-26.189858-32.289451-28.791782-44.53129c-1.70618-12.199185-32.289451-22.69219-41.033622-24.441025-7.848427-1.70618-62.872722-7.848427-61.123887-26.189858 1.748834-18.341432 0-53.275461 18.341431-62.872722 18.341432-10.450351 38.389043-16.592598 44.531291-26.189858 6.099592-10.450351 32.289451-28.791782 41.033621-34.891375 7.848427-6.142247-7.848427-38.431698 10.493005-36.682863 18.341432 1.70618 34.891375-1.748834 38.389043 10.493005 4.350758 12.199185 28.834437 36.682863 36.682864 50.630882 7.848427 13.948019 24.441024 42.782456 38.389043 36.682864 13.990673-6.142247 38.431698-20.090266 38.431698-20.090266s-26.189858-26.189858-4.350759-26.189858c21.796446 0 30.540617-7.891081 30.540617-7.891081s-36.682863-16.592598-44.53129-24.441025c-7.848427-7.848427-26.189858-22.69219-41.033622-38.389043-13.948019-16.635252-34.934029-13.990673-59.375053-22.734844-24.441024-7.848427-77.673831-1.70618-85.564912-1.70618-7.848427 0-22.69219 18.341432-22.69219 18.341432l-6.099592 32.289451s-4.350758-18.341432-18.341432-28.834437c-13.948019-10.450351-41.033622-16.592598-32.289451-30.540617 7.848427-13.990673 36.682863-13.990673 65.474646-13.990673 28.791782 0 59.375053 0 68.972314-7.848427 10.493005-7.848427 65.474646-61.123888 102.15751-71.574238 36.682863-10.493005 73.323072-28.834437 73.323072-28.834437s-114.356694-4.350758-149.290723-6.099592c-34.934029-1.70618-94.266428 4.350758-110.005936 10.493005-16.592598 6.099592-32.289451 16.592598-42.782456 18.341432-10.450351 1.70618-28.791782 13.948019-28.791782 13.948019s-48.882048-4.350758-55.024296 4.350758c-6.099592 7.891081-13.948019 28.834437-13.948019 28.834437s-9.597261-11.346095-17.488341-17.488342c-7.848427-6.099592-24.441024-18.341432-38.389044-4.350758-13.990673 13.990673-24.441024 20.047611-50.630882 16.592597-26.189858-4.350758-38.389043 13.948019-38.389043 13.948019l16.549943 26.232513s-41.033622 10.450351-41.033622 18.341432c0 7.848427 16.592598 28.791782 16.592598 28.791782s41.033622-13.990673 50.630882-4.393413c10.493005 10.493005 53.275461 32.332105 53.275461 32.332105l34.891375 18.341432s-44.53129-4.393413-62.830067-10.493005c-18.341432-6.099592-26.189858-16.592598-59.375054-18.341432-32.332105-1.70618-83.816077-13.948019-102.157509-6.099592-18.341432 7.848427-53.232806 26.189858-56.730475 13.948019-4.393413-12.199185-48.924703-24.441024-77.716485-24.441024s-91.707159-6.099592-116.105528 7.848426C33.331287 183.962427 14.989855 216.251878 14.989855 216.251878l13.948019 7.848427L0.146092 240.692902l24.441024 34.891375s6.099592 26.189858 6.099592 38.431698c0 12.241839 34.976684 16.592598 34.976684 16.592597l18.298777 10.493005S-4.204667 403.931645 6.245684 403.931645c10.493005 0 53.275461-20.047611 73.365727-34.93403 20.047611-13.948019 38.389043-36.682863 48.882048-44.488635a106.209686 106.209686 0 0 1 73.365727-18.341432c34.891375 4.350758 47.09056-4.393413 71.531584 20.047611 24.483679 24.483679 48.924703 36.682863 59.375053 59.375054 10.493005 22.734844 50.630882 48.924703 53.275461 71.616892 1.70618 22.69219-12.241839 85.564912 0 116.105529 12.199185 30.540617 41.033622 65.474646 48.882048 77.716485 7.848427 12.199185 32.289451 44.488636 36.682864 65.474646 4.350758 20.047611-1.748834 41.033622 13.948019 55.024295 16.592598 13.948019 32.289451 28.791782 32.28945 28.791782s-26.189858-88.20949-16.592597-68.972314c10.493005 18.341432 26.232513 50.630882 38.431698 59.332399 12.241839 7.891081 10.493005 62.872722 22.692189 71.616892 12.241839 7.848427 26.189858 28.791782 61.123888 42.782456 34.934029 13.948019 53.275461 26.189858 61.123888 32.289451 7.848427 6.099592 20.047611 7.848427 34.891374 20.047611 13.990673 12.241839 6.142247 26.232513 18.341432 41.076277 12.241839 13.948019 18.341432 24.441024 47.175869 24.441024 28.791782 0 30.540617-13.990673 13.948019-13.990674-16.592598 0-34.934029-1.70618-36.682864-26.189858-1.70618-24.441024-7.848427-62.830067-22.69219-62.830067-14.843763 0-28.791782-18.341432-26.189858-32.332106 1.748834-13.948019 1.748834-53.232806-7.848427-48.882048-10.493005 4.350758-22.69219 44.53129-36.682863 47.133214-13.948019 2.644579-42.782456-41.033622-42.782456-59.332399 0-18.341432-4.350758-53.275461 12.241839-73.365727 16.592598-20.047611 12.199185-26.189858 53.232807-30.540616 41.033622-4.350758 59.375053-12.241839 62.872722 10.493005 4.350758 22.69219 22.69219 44.488636 22.69219 44.488636s0-56.730475 6.142246-77.673831c6.099592-20.090266 30.540617-38.389043 30.540617-55.024295 0-16.592598-4.350758-24.441024 13.948019-36.682864 18.341432-12.199185 22.734844-26.147204 28.834437-38.389043 6.099592-12.199185 4.350758-30.540617 18.341432-34.934029 13.948019-4.350758 36.682863-16.592598 41.033621-7.848427 4.350758 7.848427 28.791782 6.099592 32.289451-4.350758 4.350758-10.493005-16.592598-22.69219-18.341432-36.682863-1.70618-13.948019-6.099592-36.682863 18.341432-30.540617 24.441024 6.099592 32.289451 32.289451 48.882048 32.289451 17.488342-1.70618 31.436361-22.69219 23.587934-30.540617z" p-id="12866" fill="#1296db"></path></svg>