<?xml version="1.0" standalone="no"?><!DOCTYPE svg PUBLIC "-//W3C//DTD SVG 1.1//EN" "http://www.w3.org/Graphics/SVG/1.1/DTD/svg11.dtd"><svg t="1649050353507" class="icon" viewBox="0 0 1024 1024" version="1.1" xmlns="http://www.w3.org/2000/svg" p-id="12463" width="16" height="16" xmlns:xlink="http://www.w3.org/1999/xlink"><defs><style type="text/css">@font-face { font-family: feedback-iconfont; src: url("//at.alicdn.com/t/font_1031158_u69w8yhxdu.woff2?t=1630033759944") format("woff2"), url("//at.alicdn.com/t/font_1031158_u69w8yhxdu.woff?t=1630033759944") format("woff"), url("//at.alicdn.com/t/font_1031158_u69w8yhxdu.ttf?t=1630033759944") format("truetype"); }
</style></defs><path d="M801.25952 490.01984l-34.9952-43.74528s-17.50016-21.87264-30.62272-37.18144c-13.12256-15.31392-30.6176-52.49536-30.6176-52.49536s-8.75008-32.80896-8.75008-41.55904c0-8.74496-30.6176-26.24512-30.6176-26.24512l-17.50528-43.74528-13.12256 10.93632-10.93632 69.99552-10.94144 37.18656-30.6176-19.6864-37.19168-41.55904 8.75008-37.18656-17.50016-4.37248-34.9952-10.93632-32.80896 21.87264-32.80896 34.9952-21.87264-4.37248s-15.31392-6.55872-28.43648 0c-13.12256 6.56384-30.62272 39.3728-30.62272 39.3728h-10.93632s-8.74496 19.68128-13.12256 37.18144-61.24544 39.3728-61.24544 39.3728-39.36768 13.12256-54.6816 19.6864c-15.31392 6.55872-19.69152 56.86784-19.69152 56.86784l4.3776 32.81408s10.93632 41.55904 15.3088 54.6816c4.37248 13.12256 8.74496 26.25024 6.56384 39.3728-2.18624 13.12256 2.18624 54.68672 2.18624 54.68672l61.24544 2.18624 37.18656-24.064h32.80896s34.9952-21.86752 43.74528-30.6176 72.18176-6.55872 72.18176-6.55872l45.93664 30.6176 15.3088 28.4416 19.6864-19.69152 21.87264-21.86752s4.37248 21.86752 4.37248 34.99008c0 13.12768 24.05888 35.00032 32.80896 43.7504s30.62272 28.4416 30.62272 28.4416l41.55904 6.55872s48.11776-6.55872 63.4368-10.94144c15.3088-4.37248 15.3088-24.05888 15.3088-32.80896s17.50016-37.18144 19.69152-50.30912c2.18624-13.12256 28.43136-52.49024 28.43136-52.49024s10.94144-52.50048 10.94144-70.00064c0-17.5104-19.69152-41.5744-19.69152-41.5744z" fill="#1296db" p-id="12464"></path></svg>