<?xml version="1.0" standalone="no"?><!DOCTYPE svg PUBLIC "-//W3C//DTD SVG 1.1//EN" "http://www.w3.org/Graphics/SVG/1.1/DTD/svg11.dtd"><svg t="1650085634501" class="icon" viewBox="0 0 1024 1024" version="1.1" xmlns="http://www.w3.org/2000/svg" p-id="2622" width="48" height="48" xmlns:xlink="http://www.w3.org/1999/xlink"><defs><style type="text/css">@font-face { font-family: feedback-iconfont; src: url("//at.alicdn.com/t/font_1031158_u69w8yhxdu.woff2?t=1630033759944") format("woff2"), url("//at.alicdn.com/t/font_1031158_u69w8yhxdu.woff?t=1630033759944") format("woff"), url("//at.alicdn.com/t/font_1031158_u69w8yhxdu.ttf?t=1630033759944") format("truetype"); }
</style></defs><path d="M864 128H672a32 32 0 0 0 0 64h114.8L489.4 489.4a31.9 31.9 0 0 0 0 45.2 31.9 31.9 0 0 0 45.2 0L832 237.3V352a32 32 0 1 0 64 0V160a32 32 0 0 0-32-32z" fill="#ffffff" p-id="2623"></path><path d="M864 480a32 32 0 0 0-32 32 320 320 0 1 1-320-320 32 32 0 0 0 0-64 384 384 0 1 0 384 384 32 32 0 0 0-32-32z" fill="#ffffff" p-id="2624"></path></svg>