<?xml version="1.0" standalone="no"?><!DOCTYPE svg PUBLIC "-//W3C//DTD SVG 1.1//EN" "http://www.w3.org/Graphics/SVG/1.1/DTD/svg11.dtd"><svg t="1649050445134" class="icon" viewBox="0 0 1024 1024" version="1.1" xmlns="http://www.w3.org/2000/svg" p-id="13429" width="16" height="16" xmlns:xlink="http://www.w3.org/1999/xlink"><defs><style type="text/css">@font-face { font-family: feedback-iconfont; src: url("//at.alicdn.com/t/font_1031158_u69w8yhxdu.woff2?t=1630033759944") format("woff2"), url("//at.alicdn.com/t/font_1031158_u69w8yhxdu.woff?t=1630033759944") format("woff"), url("//at.alicdn.com/t/font_1031158_u69w8yhxdu.ttf?t=1630033759944") format("truetype"); }
</style></defs><path d="M802.060234 245.188505c-6.141441-14.031487-22.731862-18.424323-44.653394-16.63307-22.731862 1.705956-41.113536-20.172928-67.385256-26.314369-26.27172-6.141441-56.893628-22.81716-69.17651-36.805997-12.240233-14.074136-7.847397-38.597251-22.731862-56.978926-14.031487-18.424323-59.537859-32.413161-85.809579-32.413161-26.229071 0-30.621908-28.958601-53.396418-50.880133C436.175353 2.388338 416.087723 12.879967 387.129122 11.131362 358.255819 9.425406 331.984099-2.900125 311.85382 0.639733 291.723541 4.989921 256.708797 11.088713 244.468564 25.162849 232.185682 39.236985 224.338285 133.917534 224.338285 133.917534s-10.534277 7.890046-28.915952 16.63307C177.083308 158.398001 183.224749 185.565348 183.224749 201.345439c0 16.63307-4.392836 30.707205-10.491629 44.738693-6.141441 13.988838 1.705956 22.774511 6.098793 32.413161 4.392836 10.534277 35.014744 63.120367 44.653394 84.146272 10.491628 20.172928 65.6793 75.403249 85.809579 78.04748 20.130279 1.705956 1.705956 18.339025 10.491629 28.915952 7.890046 10.491628 6.141441 75.3606 0 92.036318-6.141441 16.63307-16.63307 61.329113-16.63307 90.287714 0 28.915952-16.63307 84.146272-22.77451 104.276551-6.098792 20.172928-10.491628 53.481716-7.847397 69.261808 1.705956 16.63307-10.534277 49.08888-14.031487 61.371762-4.350187 12.240233 6.141441 38.554602 7.890046 50.837484 1.705956 12.282882 24.523115 55.230321 44.653394 69.219159 20.130279 14.074136 50.752187 16.675718 71.778093 16.675718 20.130279 0-26.27172-41.198834-30.664557-59.623157-4.350187-18.381674 14.031487-26.27172 24.523115-38.554602 10.491628-12.282882 13.988838-22.774511 0-22.774511s-7.890046-28.958601-7.890045-28.9586 14.031487-7.890046 32.413161-18.381675c18.339025-10.534277 1.705956-38.554602 1.705956-38.554602s18.424323-10.534277 30.707205-22.81716c12.197584-12.282882 10.44898-16.63307 30.621908-20.172927 20.130279-4.350187 47.254977-16.63307 50.752186-36.805998 4.392836-20.172928 7.890046-20.172928 28.873303-20.172928 20.130279 0 36.763349-22.774511 42.90479-35.057393 6.141441-12.240233 36.763349-38.554602 50.752186-56.978925 14.031487-18.381674 14.031487-38.554602 12.282882-56.978926-1.748605-18.381674 22.731862-24.523115 42.90479-24.523115 20.130279 0 53.396418-20.172928 69.133861-32.413161 16.63307-12.282882 13.988838-44.738692 16.633069-67.513203 1.748605-22.774511 18.381674-41.198834 20.13028-59.623157 1.748605-18.381674 35.014744-49.046231 49.04623-61.329113 13.988838-12.282882-4.392836-38.597251-6.141441-55.230321 0-17.528696-33.266139-7.890046-39.40758-21.921532z" p-id="13430" fill="#1296db"></path></svg>