<?xml version="1.0" standalone="no"?><!DOCTYPE svg PUBLIC "-//W3C//DTD SVG 1.1//EN" "http://www.w3.org/Graphics/SVG/1.1/DTD/svg11.dtd"><svg t="1623129540573" class="icon" viewBox="0 0 2048 1024" version="1.1" xmlns="http://www.w3.org/2000/svg" p-id="7632" xmlns:xlink="http://www.w3.org/1999/xlink" width="256" height="128"><defs><style type="text/css"></style></defs><path d="M1154.2528 197.75488H198.41024A42.76224 42.76224 0 0 1 155.648 154.99264v-46.6944A42.76224 42.76224 0 0 1 198.41024 65.536H1154.2528a42.76224 42.76224 0 0 1 42.76224 42.76224v46.6944a42.68032 42.68032 0 0 1-42.76224 42.76224" fill="#82A7FC" p-id="7633"></path><path d="M1197.91616 288.19456l421.96992 647.168a20.72576 20.72576 0 0 1-17.36704 32.11264h-383.87712a20.80768 20.80768 0 0 1-20.72576-20.80768z" fill="#E1EAFF" p-id="7634"></path><path d="M1153.35168 967.14752h-950.272c-26.29632 0-47.75936-19.08736-47.75936-42.5984V299.99104c0-23.51104 21.46304-42.5984 47.75936-42.5984h950.272c26.37824 0 47.75936 19.08736 47.75936 42.5984v624.55808c0 23.51104-21.46304 42.5984-47.75936 42.5984z m-950.272-701.56288c-21.79072 0-39.56736 15.40096-39.56736 34.4064v624.55808c0 18.92352 17.77664 34.4064 39.56736 34.4064h950.272c21.87264 0 39.56736-15.48288 39.56736-34.4064V299.99104c0-19.00544-17.69472-34.4064-39.56736-34.4064z" fill="#3370FF" p-id="7635"></path><path d="M850.00192 452.36224H305.152A34.57024 34.57024 0 0 1 270.336 417.792v-36.12672a34.48832 34.48832 0 0 1 34.57024-34.48832h544.84992a34.4064 34.4064 0 0 1 34.97984 34.48832V417.792a34.48832 34.48832 0 0 1-34.48832 34.57024M850.00192 663.552H305.152A34.48832 34.48832 0 0 1 270.336 629.39136v-36.12672a34.57024 34.57024 0 0 1 34.57024-34.57024h544.84992a34.48832 34.48832 0 0 1 34.97984 34.57024v36.12672a34.4064 34.4064 0 0 1-34.73408 34.16064M850.00192 875.47904H305.152a34.57024 34.57024 0 0 1-34.816-34.57024v-36.12672A34.48832 34.48832 0 0 1 305.152 770.048h544.84992a34.4064 34.4064 0 0 1 34.73408 34.73408v36.12672a34.48832 34.48832 0 0 1-34.48832 34.57024" fill="#E1EAFF" p-id="7636"></path><path d="M1628.40576 521.0112c4.9152-14.49984-56.77056-59.63776-42.1888-78.2336s91.3408 27.36128 77.4144 46.20288-72.66304-61.68576-57.344-82.49344 101.25312 16.95744 90.76736 39.64928-65.536-37.35552-50.7904-69.71392 81.92 26.78784 97.0752 40.96-22.03648 86.26176-46.61248 122.88c-19.41504 28.91776-89.21088 111.90272-89.21088 111.90272l-88.8832-51.6096s47.104-81.42848 29.16352-128.45056 6.22592-119.11168 30.47424-112.31232 49.80736 161.21856 49.80736 161.21856" fill="#FFFFFF" p-id="7637"></path><path d="M1607.84384 656.26112A4.5056 4.5056 0 0 1 1605.632 655.36l-88.8832-51.6096a4.17792 4.17792 0 0 1-1.55648-5.57056c0.49152-0.8192 45.95712-80.2816 28.91776-124.928-14.17216-37.10976-3.52256-89.53856 15.07328-109.93664a19.49696 19.49696 0 0 1 20.39808-8.192c9.25696 2.53952 18.10432 21.38112 25.88672 45.62944 7.3728-6.22592 20.97152-6.22592 35.30752-2.8672a38.0928 38.0928 0 0 1 1.96608-23.92064 19.33312 19.33312 0 0 1 14.336-11.55072c28.83584-5.40672 83.1488 45.62944 89.2928 51.44576 20.23424 19.33312-31.1296 105.84064-46.03904 127.95904-19.33312 28.75392-86.67136 108.78976-89.53856 112.2304a4.01408 4.01408 0 0 1-2.94912 2.21184z m-83.39456-57.344L1606.94272 647.168c12.04224-14.336 69.632-83.39456 86.75328-108.87168 30.14656-44.81024 57.91744-107.23328 47.18592-117.47328-19.6608-18.67776-62.01344-53.08416-81.92-49.152a11.14112 11.14112 0 0 0-8.192 6.88128 32.768 32.768 0 0 0 0 23.01952 137.46176 137.46176 0 0 1 27.8528 12.53376c19.41504 11.55072 27.77088 24.00256 23.10144 34.16064a11.8784 11.8784 0 0 1-9.99424 7.29088c-11.79648 1.06496-26.54208-12.61568-36.37248-26.54208a94.53568 94.53568 0 0 1-11.14112-20.8896c-15.72864-4.42368-29.40928-4.42368-33.66912 1.2288a9.25696 9.25696 0 0 0-1.2288 2.37568c2.53952 8.192 4.9152 17.53088 7.12704 26.54208a126.976 126.976 0 0 1 33.50528 18.26816c17.77664 13.5168 24.576 26.37824 17.6128 35.30752a10.97728 10.97728 0 0 1-10.40384 4.34176c-9.66656-1.06496-22.85568-13.27104-33.9968-28.34432 3.85024 18.26816 6.79936 34.73408 8.68352 45.30176a13.02528 13.02528 0 0 1 1.06496 9.58464 4.01408 4.01408 0 0 1-4.17792 2.78528 4.096 4.096 0 0 1-3.6864-3.44064c0-2.21184-0.73728-4.5056-1.14688-6.79936a165.96992 165.96992 0 0 0-17.12128-22.20032c-16.384-19.2512-33.50528-39.15776-23.10144-52.4288a21.2992 21.2992 0 0 1 21.05344-5.40672 48.00512 48.00512 0 0 1-3.85024-23.01952c-8.192-26.624-15.89248-46.20288-22.69184-48.08704-3.85024-1.06496-8.192 0.73728-12.20608 5.40672-16.384 18.26816-26.29632 67.66592-13.43488 101.49888 15.81056 42.76224-19.08736 111.4112-28.09856 127.95904zM1597.44 442.368a9.91232 9.91232 0 0 0-8.192 2.78528c-6.30784 8.192 10.56768 27.68896 22.85568 42.02496l7.45472 8.84736c-3.11296-16.384-6.71744-33.66912-10.6496-50.05312l-0.98304-1.96608A42.1888 42.1888 0 0 0 1597.44 442.368z m22.1184 5.65248c11.55072 19.98848 28.59008 38.42048 37.76512 39.48544a2.78528 2.78528 0 0 0 2.94912-1.14688c3.2768-4.5056-3.11296-14.09024-16.384-23.92064a123.61728 123.61728 0 0 0-24.24832-14.25408z m34.32448-37.02784a93.14304 93.14304 0 0 0 7.45472 12.77952c10.6496 15.07328 23.01952 23.67488 28.91776 23.10144a3.85024 3.85024 0 0 0 3.2768-2.62144c2.62144-5.65248-5.16096-14.99136-19.82464-23.67488a125.82912 125.82912 0 0 0-19.74272-9.4208z" fill="#3370FF" p-id="7638"></path><path d="M618.57792 518.9632S626.688 452.03456 598.016 442.368s-112.39424-18.10432-137.95328-46.36672-18.51392 55.7056 34.816 64.7168c0 0-141.47584 57.99936-134.51264 89.12896 1.55648 6.9632 7.70048 10.24 16.384 10.97728 29.32736 2.4576-20.72576-12.288-9.17504 20.15232S475.136 560.7424 501.18656 557.056s52.51072 24.576 52.51072 24.576z" fill="#FFFFFF" p-id="7639"></path><path d="M387.072 595.47648a32.768 32.768 0 0 1-14.00832-2.62144 17.85856 17.85856 0 0 1-9.91232-10.6496 22.60992 22.60992 0 0 1 2.78528-19.82464 16.384 16.384 0 0 1-9.91232-11.79648c-6.5536-29.32736 88.4736-73.15456 126.1568-89.2928a70.94272 70.94272 0 0 1-40.38656-54.72256c-1.39264-10.48576 0.65536-17.53088 5.65248-19.90656s9.66656 0 15.31904 6.38976c17.36704 19.2512 65.536 29.32736 100.10624 36.61824a367.0016 367.0016 0 0 1 36.12672 8.68352c31.78496 10.73152 24.00256 78.2336 23.67488 81.1008a4.42368 4.42368 0 0 1-1.2288 2.4576l-64.96256 63.0784a3.60448 3.60448 0 0 1-2.94912 1.2288 4.25984 4.25984 0 0 1-2.8672-1.31072s-25.64096-27.0336-49.152-23.67488A230.11328 230.11328 0 0 0 465.79712 573.44c-26.13248 9.99424-57.42592 22.03648-78.72512 22.03648z m-12.86144-30.88384a16.384 16.384 0 0 0-3.35872 14.90944 9.66656 9.66656 0 0 0 5.57056 5.89824c16.384 7.3728 56.77056-8.192 86.4256-19.74272a223.80544 223.80544 0 0 1 37.76512-12.53376c22.528-3.19488 45.13792 15.72864 53.08416 23.26528L614.4 517.07904c2.048-18.67776 2.37568-63.97952-18.26816-70.94272a359.05536 359.05536 0 0 0-35.14368-8.192c-38.0928-8.192-85.44256-17.94048-104.52992-39.15776-3.35872-3.76832-5.3248-4.42368-5.89824-4.42368s-2.37568 5.7344 0 16.384c3.44064 14.99136 16.384 41.53344 44.40064 46.2848a3.93216 3.93216 0 0 1 3.35872 3.52256 4.01408 4.01408 0 0 1-2.4576 4.25984C442.368 486.27712 359.54688 528.54784 364.05248 548.864a9.25696 9.25696 0 0 0 6.88128 6.71744c19.16928-21.7088 68.64896-42.35264 85.68832-38.83008a8.192 8.192 0 0 1 7.04512 5.57056 11.71456 11.71456 0 0 1-4.25984 11.38688c-14.09024 14.49984-59.8016 33.91488-85.1968 30.88384z m78.80704-40.96a144.1792 144.1792 0 0 0-63.0784 25.64096 94.94528 94.94528 0 0 0-8.68352 6.9632h3.03104c30.3104-2.37568 71.10656-24.576 71.51616-31.9488a5.40672 5.40672 0 0 0-2.78528 0z m165.56032-5.07904z" fill="#3370FF" p-id="7640"></path><path d="M1034.73152 577.86368l223.88736-48.00512-55.78752 437.69856h-332.67712z" fill="#B5CEFF" p-id="7641"></path><path d="M1116.48768 459.65312s-23.7568 70.8608-63.16032 84.45952c0 0-6.9632 103.95648 49.72544 103.95648 81.92 0 140.57472-128.94208 140.57472-128.94208s-40.96-17.12128-55.37792-77.08672c-4.42368-17.94048-46.85824-32.768-71.76192 17.6128" fill="#FFFFFF" p-id="7642"></path><path d="M1103.0528 652.16512a40.96 40.96 0 0 1-31.29344-13.18912c-26.624-28.50816-22.69184-92.16-22.528-94.78144a3.85024 3.85024 0 0 1 2.70336-3.60448c37.10976-12.77952 60.45696-81.26464 60.70272-81.92v-0.49152c17.85856-36.20864 42.5984-37.51936 52.51072-36.4544a29.81888 29.81888 0 0 1 26.78784 19.6608c13.9264 57.344 52.67456 73.728 53.00224 74.30144a3.60448 3.60448 0 0 1 2.21184 2.29376 3.93216 3.93216 0 0 1 0 3.19488c-1.96608 4.99712-60.70272 130.99008-144.09728 130.99008z m-45.79328-105.18528c-0.4096 12.12416-0.90112 63.24224 20.48 86.09792a32.768 32.768 0 0 0 25.31328 10.89536c70.61504 0 124.928-102.48192 135.08608-122.88-10.81344-5.98016-41.45152-26.86976-53.90336-77.98784a22.28224 22.28224 0 0 0-19.74272-13.43488c-8.192-0.90112-28.59008 0-44.15488 31.70304-1.88416 5.57056-24.65792 69.87776-63.0784 85.6064z" fill="#3370FF" p-id="7643"></path><path d="M1242.80832 398.45888a26.54208 26.54208 0 0 0 15.31904-50.87232" fill="#FFFFFF" p-id="7644"></path><path d="M1250.42688 403.70176a29.57312 29.57312 0 0 1-8.76544-1.31072 4.096 4.096 0 0 1-2.78528-5.07904 4.17792 4.17792 0 0 1 5.07904-2.78528 22.44608 22.44608 0 1 0 12.94336-43.008 4.096 4.096 0 0 1-2.70336-5.07904 4.17792 4.17792 0 0 1 5.07904-2.78528 30.63808 30.63808 0 0 1-8.84736 60.04736z" fill="#3370FF" p-id="7645"></path><path d="M1114.112 404.52096c10.56768-35.06176 41.86112-133.61152 41.86112-133.61152a34.24256 34.24256 0 0 1 42.68032-22.9376l49.152 14.7456a34.32448 34.32448 0 0 1 22.9376 42.68032l-40.22272 134.10304c-5.48864 18.0224-40.30464 24.576-62.91456 18.10432-37.6832-11.30496-60.2112-31.04768-53.57568-53.08416" fill="#FFFFFF" p-id="7646"></path><path d="M1186.52928 464.32256a68.32128 68.32128 0 0 1-20.0704-2.78528 111.98464 111.98464 0 0 1-45.056-23.51104 32.768 32.768 0 0 1-11.22304-34.73408c10.40384-34.65216 41.45152-132.62848 41.7792-133.61152a38.42048 38.42048 0 0 1 47.75936-25.64096l49.152 14.7456a38.42048 38.42048 0 0 1 25.72288 47.84128l-40.30464 134.02112c-2.8672 9.8304-12.77952 17.36704-27.8528 21.21728a81.92 81.92 0 0 1-19.90656 2.4576z m2.21184-213.72928a30.72 30.72 0 0 0-14.336 3.60448 29.81888 29.81888 0 0 0-14.58176 17.85856c0 1.06496-31.45728 98.95936-41.86112 133.61152a25.47712 25.47712 0 0 0 9.09312 26.46016 105.2672 105.2672 0 0 0 41.69728 21.62688 72.0896 72.0896 0 0 0 35.71712 0c11.96032-3.11296 20.0704-8.76544 22.1184-15.64672l40.30464-134.02112a30.39232 30.39232 0 0 0-20.23424-37.60128l-49.152-14.82752a31.78496 31.78496 0 0 0-8.76544-1.06496zM1114.112 404.52096z" fill="#3370FF" p-id="7647"></path><path d="M1123.45088 362.57792a26.54208 26.54208 0 0 1 15.23712-50.87232" fill="#FFFFFF" p-id="7648"></path><path d="M1123.45088 366.67392a3.19488 3.19488 0 0 1-1.2288 0 30.63808 30.63808 0 0 1-20.48-38.17472 30.14656 30.14656 0 0 1 14.82752-18.18624 30.88384 30.88384 0 0 1 23.3472-2.37568 4.17792 4.17792 0 0 1 2.70336 5.16096 4.096 4.096 0 0 1-5.07904 2.70336 22.28224 22.28224 0 0 0-17.12128 1.72032 22.9376 22.9376 0 0 0-10.89536 13.35296 22.528 22.528 0 0 0 15.07328 27.93472 4.096 4.096 0 0 1 2.78528 5.16096 4.17792 4.17792 0 0 1-3.93216 2.70336z" fill="#3370FF" p-id="7649"></path><path d="M1109.68832 401.98144l-11.14112 36.864s48.25088 75.03872 127.7952 32.768l9.50272-31.70304a334.72512 334.72512 0 0 0-61.60384-24.00256 371.0976 371.0976 0 0 0-64.55296-14.09024" fill="#FFC60A" p-id="7650"></path><path d="M1176.94464 288.68608L1146.88 310.0672l10.97728-33.75104zM1242.39872 308.4288l13.1072 34.24256 10.32192-34.24256z" fill="#E79900" p-id="7651"></path><path d="M1149.00992 279.59296c12.45184-41.45152 10.6496-86.016 109.19936-56.36096l70.94272 21.2992s-7.3728 36.53632-36.53632 55.37792c-19.08736 12.288-67.9936 37.35552-143.60576-20.31616" fill="#FFC60A" p-id="7652"></path><path d="M1191.85408 412.71296a2.62144 2.62144 0 0 1-1.14688 0l-19.2512-5.98016a4.096 4.096 0 0 1-2.70336-5.24288l24.576-73.728a4.096 4.096 0 0 1 5.16096-2.53952 4.01408 4.01408 0 0 1 2.62144 5.16096l-23.26528 69.55008 15.31904 4.58752a4.096 4.096 0 0 1 2.8672 5.07904 4.17792 4.17792 0 0 1-4.17792 3.11296z" fill="#3370FF" p-id="7653"></path><path d="M1166.62272 342.99904a6.47168 6.47168 0 0 1-8.192 4.34176 6.47168 6.47168 0 1 1 3.76832-12.45184 6.47168 6.47168 0 0 1 4.34176 8.192M1230.0288 362.0864a6.38976 6.38976 0 0 1-8.192 4.34176 6.63552 6.63552 0 0 1-4.42368-8.192 6.47168 6.47168 0 1 1 12.45184 3.76832" fill="#3370FF" p-id="7654"></path><path d="M1526.82496 213.97504l-72.66304-2.8672a4.096 4.096 0 0 1-4.01408-4.25984 3.93216 3.93216 0 0 1 4.25984-3.93216l72.74496 2.8672a4.096 4.096 0 0 1 0 8.192zM1555.2512 159.744a4.01408 4.01408 0 0 1-3.03104-1.31072l-49.152-52.0192a4.096 4.096 0 1 1 5.98016-5.65248l49.152 52.10112a4.01408 4.01408 0 0 1 0 5.7344 3.85024 3.85024 0 0 1-2.94912 1.14688zM1540.096 185.87648h-0.90112l-39.15776-9.0112a4.096 4.096 0 1 1 1.88416-8.192l39.07584 9.0112a4.096 4.096 0 0 1-0.90112 8.192z" fill="#3370FF" p-id="7655"></path><path d="M520.02816 577.45408L618.57792 483.328l142.62272 123.6992s241.17248-62.6688 292.12672-62.6688c0 0-71.92576 380.02688-143.7696 419.34848H756.5312s145.48992-193.00352 155.648-266.6496c0 0-15.31904 55.95136-33.83296 81.92 0 0-110.592 11.71456-167.936 11.71456-52.92032-25.64096-190.0544-212.992-190.0544-212.992" fill="#3370FF" p-id="7656"></path><path d="M909.312 967.55712H756.5312a4.096 4.096 0 0 1-3.2768-6.5536 1925.12 1925.12 0 0 0 117.88288-177.52064C845.49632 786.432 758.49728 794.624 710.08256 794.624a4.42368 4.42368 0 0 1-1.80224 0C655.36 768.4096 522.32192 587.53024 516.75136 579.82976a3.93216 3.93216 0 0 1 0.49152-5.3248l98.304-94.37184a4.17792 4.17792 0 0 1 5.57056 0L761.856 602.27584c25.31328-6.5536 242.23744-62.2592 291.14368-62.2592a4.01408 4.01408 0 0 1 3.11296 1.47456 3.93216 3.93216 0 0 1 0.90112 3.35872c-2.94912 15.64672-73.07264 382.40256-145.8176 422.21568a4.096 4.096 0 0 1-1.88416 0.49152z m-144.83456-8.192h144.01536c64.63488-38.0928 131.072-366.26432 139.83744-410.99264-58.9824 3.52256-283.77088 61.76768-286.14656 62.34112a4.01408 4.01408 0 0 1-3.6864-0.90112l-139.75552-121.2416-93.30688 89.2928C542.96576 601.53856 662.56896 761.856 710.98368 786.432c52.75648 0 150.07744-9.99424 164.74112-11.55072l1.39264-2.048c4.5056-8.192 8.68352-16.384 12.45184-24.576a466.944 466.944 0 0 0 18.35008-52.59264 4.096 4.096 0 0 1 8.192 1.6384 199.22944 199.22944 0 0 1-18.8416 54.14912 183.5008 183.5008 0 0 1-12.53376 24.576c-39.07584 72.58112-101.82656 158.84288-120.0128 183.33696z" fill="#FFFFFF" p-id="7657"></path><path d="M1167.19616 968.21248h-177.27488a4.17792 4.17792 0 0 1-4.096-4.096 4.096 4.096 0 0 1 4.096-4.096h177.27488a4.096 4.096 0 0 1 4.096 4.096 4.096 4.096 0 0 1-4.096 4.096z" fill="#3370FF" p-id="7658"></path><path d="M662.65088 536.65792l-115.67104 111.4112z" fill="#3370FF" p-id="7659"></path><path d="M546.97984 652.16512a4.096 4.096 0 0 1-2.8672-7.04512l115.67104-111.4112a4.096 4.096 0 0 1 5.81632 0 4.01408 4.01408 0 0 1 0 5.7344L549.76512 651.01824a3.6864 3.6864 0 0 1-2.78528 1.14688zM563.2 596.45952h-0.57344A17.94048 17.94048 0 0 1 550.99392 565.248a17.94048 17.94048 0 0 1 25.31328 0.90112 17.94048 17.94048 0 0 1-0.8192 25.31328 18.0224 18.0224 0 0 1-12.288 4.99712z m0-27.68896a9.74848 9.74848 0 0 0-7.12704 16.384 9.58464 9.58464 0 0 0 6.79936 3.11296 10.32192 10.32192 0 0 0 7.04512-2.62144 9.66656 9.66656 0 0 0 3.03104-6.79936 9.50272 9.50272 0 0 0-2.62144-6.9632 9.66656 9.66656 0 0 0-7.12704-3.11296z" fill="#FFFFFF" p-id="7660"></path><path d="M1675.34592 351.19104a131.072 131.072 0 1 1 177.19296-55.86944 131.4816 131.4816 0 0 1-177.19296 55.86944m203.9808-41.94304a161.62816 161.62816 0 1 0-229.376 62.01344l-94.69952 181.53472 32.768 17.03936 94.94528-182.51776a161.87392 161.87392 0 0 0 196.608-78.06976" fill="#FFC60A" p-id="7661"></path><path d="M1627.50464 519.61856c4.83328-14.41792-56.85248-59.55584-42.1888-78.2336s39.3216 27.52512 25.3952-0.90112c-7.12704-14.58176-10.32192-28.34432-4.99712-35.38944s21.38112-7.3728 38.0928-2.70336c28.01664 8.192-13.18912 4.99712 1.88416-27.36128s81.92 26.78784 97.0752 40.96-3.60448 85.11488-111.32928 207.58528" fill="#FFFFFF" p-id="7662"></path><path d="M1631.4368 627.83488a4.25984 4.25984 0 0 1-2.70336-0.98304 4.096 4.096 0 0 1 0-5.81632c110.34624-125.41952 122.88-191.20128 111.57504-201.9328-19.6608-18.67776-62.01344-53.08416-81.92-49.152a11.0592 11.0592 0 0 0-8.192 6.88128 32.768 32.768 0 0 0 0 23.01952 136.23296 136.23296 0 0 1 27.93472 12.53376c19.33312 11.55072 27.77088 24.00256 23.10144 34.16064a11.96032 11.96032 0 0 1-9.99424 7.29088c-11.79648 0.98304-26.54208-12.61568-36.37248-26.54208a89.53856 89.53856 0 0 1-11.14112-20.8896c-15.81056-4.42368-29.40928-4.42368-33.66912 1.2288-3.2768 4.34176-2.12992 14.00832 3.19488 26.37824a20.97152 20.97152 0 0 0 0.90112 1.96608 124.68224 124.68224 0 0 1 35.30752 18.8416c17.77664 13.5168 24.1664 26.37824 17.6128 35.30752a11.0592 11.0592 0 0 1-10.48576 4.42368c-14.336-1.72032-36.4544-27.93472-48.25088-51.69152-8.92928-2.37568-16.384-2.29376-18.67776 1.14688-6.30784 8.192 10.56768 27.68896 22.85568 42.02496s22.77376 26.54208 19.90656 34.97984a4.096 4.096 0 0 1-5.16096 2.53952 4.096 4.096 0 0 1-2.62144-5.16096c1.39264-4.01408-10.48576-17.85856-18.35008-27.0336-16.384-19.2512-33.5872-39.15776-23.10144-52.4288a21.38112 21.38112 0 0 1 21.05344-5.40672c-4.01408-10.40384-6.63552-22.9376-0.73728-30.80192s21.54496-9.17504 37.60128-5.40672a38.74816 38.74816 0 0 1 1.88416-23.92064 19.33312 19.33312 0 0 1 14.41792-11.4688c28.672-5.57056 83.1488 45.54752 89.2928 51.36384 16.384 15.89248 0.90112 85.85216-111.08352 212.992a3.93216 3.93216 0 0 1-4.17792 1.55648z m-12.6976-180.96128c11.55072 19.90656 28.59008 38.33856 37.76512 39.40352a2.70336 2.70336 0 0 0 2.94912-1.14688c3.2768-4.42368-3.11296-14.09024-16.384-23.92064a116.736 116.736 0 0 0-24.33024-14.336z m34.32448-37.2736a93.14304 93.14304 0 0 0 7.45472 12.77952c10.6496 15.07328 22.9376 23.59296 28.91776 23.10144a3.85024 3.85024 0 0 0 3.2768-2.62144c2.62144-5.65248-5.16096-14.90944-19.82464-23.67488a125.82912 125.82912 0 0 0-19.82464-9.58464z" fill="#3370FF" p-id="7663"></path><path d="M1302.9376 963.46112h-100.10624s-73.728-239.45216 40.96-444.33408c0 0 107.39712 23.51104 173.6704 58.32704 26.624 13.9264 0 155.15648 0 155.15648l101.5808-168.26368 136.31488 75.12064L1466.368 963.46112h-163.4304" fill="#3370FF" p-id="7664"></path><path d="M1466.368 967.55712h-263.53664a3.93216 3.93216 0 0 1-3.85024-2.8672c-0.73728-2.4576-73.23648-243.54816 40.96-447.61088a4.096 4.096 0 0 1 4.5056-1.96608c1.06496 0 108.62592 24.08448 174.73536 58.65472 22.60992 11.96032 12.77952 95.10912 6.22592 138.11712l90.112-149.66784a4.096 4.096 0 0 1 5.48864-1.47456l136.3968 75.12064a4.66944 4.66944 0 0 1 1.96608 2.53952 4.5056 4.5056 0 0 1-0.4096 3.11296l-189.31712 323.9936a3.93216 3.93216 0 0 1-3.2768 2.048z m-260.096-8.192h257.72032l185.9584-318.34112-129.51552-71.18848-99.61472 164.90496a4.01408 4.01408 0 0 1-4.9152 1.72032 4.096 4.096 0 0 1-2.62144-4.58752c10.07616-53.41184 19.57888-141.63968 2.12992-150.81472-58.9824-30.88384-151.9616-53.16608-169.73824-57.344-103.79264 188.416-47.43168 408.04352-39.7312 435.65056z" fill="#FFFFFF" p-id="7665"></path><path d="M1284.34176 933.888a4.01408 4.01408 0 0 1-3.93216-3.03104c-16.384-62.75072 11.22304-202.42432 12.45184-208.40448a4.01408 4.01408 0 0 1 4.83328-3.19488 4.096 4.096 0 0 1 3.19488 4.83328c0 1.39264-28.18048 143.85152-12.53376 204.8a4.17792 4.17792 0 0 1-2.94912 4.99712z" fill="#FFFFFF" p-id="7666"></path><path d="M1475.05152 637.09184l180.224 111.65696z" fill="#3370FF" p-id="7667"></path><path d="M1655.27552 752.8448a4.096 4.096 0 0 1-2.12992-0.65536l-180.224-111.65696a4.096 4.096 0 1 1 4.34176-6.9632l180.224 111.65696a4.17792 4.17792 0 0 1 1.31072 5.65248 4.25984 4.25984 0 0 1-3.52256 1.96608z" fill="#FFFFFF" p-id="7668"></path><path d="M1600.47104 646.67648a13.84448 13.84448 0 1 1-1.47456 19.49696 13.76256 13.76256 0 0 1 1.47456-19.49696" fill="#3370FF" p-id="7669"></path><path d="M1609.48224 675.10272a17.94048 17.94048 0 0 1-11.63264-31.5392 17.6128 17.6128 0 0 1 13.02528-4.25984 17.12128 17.12128 0 0 1 12.20608 6.22592 17.85856 17.85856 0 0 1-13.59872 29.57312z m-6.30784-25.31328a9.74848 9.74848 0 1 0 13.68064 1.06496 9.74848 9.74848 0 0 0-13.68064-1.06496z" fill="#FFFFFF" p-id="7670"></path><path d="M1636.7616 261.48864a4.096 4.096 0 0 1-3.93216-3.03104 105.10336 105.10336 0 1 1 202.17856-56.5248 4.096 4.096 0 1 1-8.192 2.21184 96.91136 96.91136 0 0 0-186.69568 52.10112 4.25984 4.25984 0 0 1-2.8672 5.07904zM1735.55712 338.24768a106.496 106.496 0 0 1-34.24256-5.7344 4.17792 4.17792 0 0 1-2.53952-5.24288 4.096 4.096 0 0 1 5.16096-2.53952 96.99328 96.99328 0 0 0 123.2896-59.96544 4.096 4.096 0 0 1 7.7824 2.70336 105.34912 105.34912 0 0 1-99.45088 70.77888z" fill="#3370FF" p-id="7671"></path><path d="M535.83872 135.74144H231.50592a4.096 4.096 0 0 1-4.096-4.096 4.17792 4.17792 0 0 1 4.096-4.096h304.3328a4.17792 4.17792 0 0 1 4.096 4.096 4.096 4.096 0 0 1-4.096 4.096zM668.63104 135.74144H577.536a4.096 4.096 0 0 1-4.096-4.096 4.17792 4.17792 0 0 1 4.096-4.096h91.09504a4.096 4.096 0 0 1 4.096 4.096 4.096 4.096 0 0 1-4.096 4.096z" fill="#FFFFFF" p-id="7672"></path></svg>